# xmcd CD database file
#
# Track frame offsets:
#	150
#	16671
#	27914
#	43313
#	56055
#	71514
#	85185
#	97564
#
# Disc length: 1526 seconds
#
# Revision: 0
# Processed by: cddbd v1.5.2PL0 Copyright (c) Steve Scherf et al.
# Submitted via: CDex 1.94
#
DISCID=5805f408
DTITLE=Nice Horse - There Goes The Neighbourhood
DYEAR=2017
DGENRE=Country
TTITLE0=Pony Up
TTITLE1=Jim, Jack, Johnnie, and Jose
TTITLE2=Six String Outlaw
TTITLE3=Mansplainin'
TTITLE4=Tonight
TTITLE5=Beer Baby Banjo
TTITLE6=Put Your Lips On Me
TTITLE7=Hold Your Horses
EXTD=YEAR: 2017
EXTT0=
EXTT1=
EXTT2=
EXTT3=
EXTT4=
EXTT5=
EXTT6=
EXTT7=
PLAYORDER=
